<mxfile host="app.diagrams.net" modified="2024-06-26T12:21:41.469Z" agent="Mozilla/5.0 (Windows NT 10.0; Win64; x64) AppleWebKit/537.36 (KHTML, like Gecko) Chrome/126.0.0.0 Safari/537.36" version="24.6.3" etag="nqpsggBvu693yokbq4LZ" type="github">
  <diagram name="Page-1" id="U4uPWa4FcVaGu5H6SD7M">
    <mxGraphModel>
      <root>
        <mxCell id="0" />
        <mxCell id="1" parent="0" />
      </root>
    </mxGraphModel>
  </diagram>
</mxfile>
